<?xml version="1.0" encoding="UTF-8"?>
<svg xmlns="http://www.w3.org/2000/svg" viewBox="0 0 1080 1350" width="1080" height="1350">
  <defs>
    <radialGradient id="bgGrad" cx="50%" cy="0%" r="100%">
      <stop offset="0%" stop-color="#113a33"/>
      <stop offset="60%" stop-color="#0d2e28"/>
      <stop offset="100%" stop-color="#0a231e"/>
    </radialGradient>
    <linearGradient id="brandGrad" x1="0%" y1="0%" x2="100%" y2="100%">
      <stop offset="0%"  stop-color="#0d8070"/>
      <stop offset="50%" stop-color="#2aa08a"/>
      <stop offset="100%" stop-color="#4dd4c6"/>
    </linearGradient>
    <style>
      .h1   { font-family: 'Inter Tight','Inter',system-ui,sans-serif; font-weight:500; letter-spacing:-0.035em; fill:#ffffff; }
      .h2   { font-family: 'Inter Tight','Inter',system-ui,sans-serif; font-weight:500; letter-spacing:-0.03em;  fill:#ffffff; }
      .h3   { font-family: 'Inter Tight','Inter',system-ui,sans-serif; font-weight:500; letter-spacing:-0.015em; fill:#ffffff; }
      .body { font-family: 'Inter','Inter Tight',system-ui,sans-serif; font-weight:400; letter-spacing:-0.003em; fill:#a1e8d9; }
      .metric { font-family: 'Inter Tight',system-ui,sans-serif; font-weight:500; letter-spacing:-0.03em; fill:#4dd4c6; }
      .mono  { font-family: 'Geist Mono','JetBrains Mono',ui-monospace,monospace; font-weight:500; letter-spacing:0.12em; text-transform:uppercase; fill:#a1e8d9; }
      .emph { font-style:italic; fill:url(#brandGrad); }
    </style>
  </defs>
  <rect width="1080" height="1350" fill="url(#bgGrad)"/>

  <!-- wordmark + 3x3 mark -->
  <g transform="translate(64,64)">
    <g transform="scale(1.23)">
      <rect x="0"   y="0"   width="7" height="7" rx="1.6" fill="#165046"/>
      <rect x="9.5" y="0"   width="7" height="7" rx="1.6" fill="#165046"/>
      <rect x="19"  y="0"   width="7" height="7" rx="1.6" fill="#6ffce0"/>
      <rect x="0"   y="9.5" width="7" height="7" rx="1.6" fill="#165046"/>
      <rect x="9.5" y="9.5" width="7" height="7" rx="1.6" fill="#2dd4aa"/>
      <rect x="19"  y="9.5" width="7" height="7" rx="1.6" fill="#1a8a7d"/>
      <rect x="0"   y="19"  width="7" height="7" rx="1.6" fill="#2dd4aa"/>
      <rect x="9.5" y="19"  width="7" height="7" rx="1.6" fill="#6ffce0"/>
      <rect x="19"  y="19"  width="7" height="7" rx="1.6" fill="#4df4d4"/>
    </g>
    <text x="48" y="28" font-family="'Inter Tight',sans-serif" font-weight="700" font-size="26" letter-spacing="-0.02em">
      <tspan fill="#ffffff">Block</tspan><tspan fill="#4dd4c6">Score</tspan>
    </text>
  </g>

  <!-- eyebrow + headline with italic+gradient emphasis -->
  <g transform="translate(64,260)">
    <rect x="0" y="0" width="120" height="32" rx="16" fill="#15473e"/>
    <text x="60" y="20" class="mono" font-size="12" text-anchor="middle">FEATURES</text>
    <text x="0" y="84" class="h2" font-size="48">Six signals.</text>
    <text x="0" y="138" class="h2" font-size="48"><tspan class="emph">One trusted score.</tspan></text>
  </g>

  <!-- 3-up stats row -->
  <g transform="translate(64,500)">
    <rect width="296" height="220" rx="16" fill="#113a33"/>
    <text x="32" y="48" class="mono" font-size="14">Response rate</text>
    <text x="148" y="140" class="metric" font-size="96" text-anchor="middle">87%</text>
    <text x="148" y="180" class="body" font-size="18" text-anchor="middle">↑ 18 vs Q4</text>
  </g>
  <g transform="translate(392,500)">
    <rect width="296" height="220" rx="16" fill="#113a33"/>
    <text x="32" y="48" class="mono" font-size="14">Faster insights</text>
    <text x="148" y="140" class="metric" font-size="96" text-anchor="middle">3.2x</text>
    <text x="148" y="180" class="body" font-size="18" text-anchor="middle">vs manual review</text>
  </g>
  <g transform="translate(720,500)">
    <rect width="296" height="220" rx="16" fill="#113a33"/>
    <text x="32" y="48" class="mono" font-size="14">Anonymous</text>
    <text x="148" y="140" class="metric" font-size="96" text-anchor="middle">100%</text>
    <text x="148" y="180" class="body" font-size="18" text-anchor="middle">data stays in AU</text>
  </g>

  <!-- horizontal bar with brandGrad fill -->
  <g transform="translate(64,800)">
    <text x="0" y="0" class="body" font-size="18">Heating reliability</text>
    <rect x="0" y="12" width="952" height="14" rx="7" fill="#15473e"/>
    <rect x="0" y="12" width="760" height="14" rx="7" fill="url(#brandGrad)"/>
    <text x="970" y="24" class="mono" font-size="16">80%</text>
  </g>

  <!-- footer -->
  <text x="540" y="1300" class="body" font-size="14" fill="#a1e8d9" opacity="0.6" text-anchor="middle">
    blockscore.au · anonymous tenant feedback · 2026
  </text>
</svg>
